<?xml version="1.0" standalone="no"?>
<!DOCTYPE svg PUBLIC "-//W3C//DTD SVG 20010904//EN"
 "http://www.w3.org/TR/2001/REC-SVG-20010904/DTD/svg10.dtd">
<svg version="1.0" xmlns="http://www.w3.org/2000/svg"
 width="512.000000pt" height="512.000000pt" viewBox="0 0 512.000000 512.000000"
 preserveAspectRatio="xMidYMid meet">
<metadata>
Created by potrace 1.11, written by Peter Selinger 2001-2013
</metadata>
<g transform="translate(0.000000,512.000000) scale(0.100000,-0.100000)"
fill="#000000" stroke="none">
<path d="M283 1460 c-75 -20 -113 -36 -113 -48 0 -11 48 -183 52 -188 2 -2 23
4 47 12 124 42 302 38 373 -9 34 -23 78 -97 78 -132 0 -19 -6 -20 -137 -20
-99 0 -156 -5 -201 -18 -145 -39 -250 -118 -300 -224 -24 -51 -27 -70 -27
-163 0 -89 4 -113 24 -158 50 -110 166 -180 316 -189 129 -9 264 31 324 96
l27 28 29 -43 c16 -23 46 -52 66 -63 66 -37 173 -21 212 31 l21 28 -21 22
c-58 64 -64 100 -73 423 -8 298 -13 337 -57 436 -40 89 -130 154 -255 184 -92
22 -294 19 -385 -5z m415 -586 c21 -6 22 -12 22 -88 0 -106 -14 -152 -59 -197
-87 -87 -291 -78 -334 14 -54 112 15 234 150 266 44 10 188 13 221 5z"/>
<path d="M1663 1466 c-49 -16 -102 -47 -128 -76 -26 -29 -33 -26 -57 25 l-22
45 -93 0 -93 0 0 -560 0 -560 130 0 130 0 0 401 c0 389 1 402 21 430 23 32 90
75 141 90 73 21 160 -13 205 -80 23 -34 23 -34 23 -437 l0 -404 130 0 130 0 0
405 0 404 32 36 c57 65 135 92 218 74 61 -13 97 -41 121 -93 17 -38 19 -73 19
-433 l0 -393 135 0 135 0 0 358 c0 196 -4 395 -10 440 -26 226 -159 342 -392
342 -120 0 -202 -28 -303 -104 -8 -6 -25 1 -52 23 -68 54 -133 74 -263 77 -79
3 -128 0 -157 -10z"/>
<path d="M3431 1464 c-82 -22 -149 -62 -219 -131 -105 -104 -161 -254 -162
-431 -1 -353 210 -582 535 -582 158 0 284 48 381 144 132 132 189 350 150 575
-40 227 -165 374 -363 425 -76 20 -248 20 -322 0z m277 -220 c101 -50 146
-156 145 -339 -1 -135 -25 -220 -79 -283 -64 -75 -147 -103 -246 -83 -129 27
-193 128 -204 321 -12 204 54 352 178 397 60 21 148 16 206 -13z"/>
<path d="M4500 1461 c-71 -23 -93 -35 -142 -79 -64 -58 -83 -103 -83 -202 0
-73 4 -92 27 -135 46 -87 121 -146 270 -212 165 -72 209 -112 210 -194 1 -83
-53 -114 -184 -107 -68 4 -91 11 -157 44 l-78 40 -45 -102 -45 -102 76 -35
c89 -41 165 -57 271 -57 202 0 344 69 406 197 24 48 28 69 28 137 -1 105 -27
167 -98 234 -59 56 -86 71 -235 133 -69 28 -118 56 -144 81 -37 35 -39 40 -34
80 7 54 39 83 100 92 62 9 173 -10 226 -40 25 -13 48 -21 51 -17 6 7 70 178
70 187 0 8 -104 47 -162 61 -88 21 -258 19 -328 -4z"/>
</g>
</svg>
